<?xml version="1.0" encoding="UTF-8"?>
<!DOCTYPE svg PUBLIC "-//W3C//DTD SVG 1.1//EN" "http://www.w3.org/Graphics/SVG/1.1/DTD/svg11.dtd">
<!-- Creator: CorelDRAW X7 -->
<svg xmlns="http://www.w3.org/2000/svg" xml:space="preserve" width="5.7124in" height="1.79816in" version="1.1" style="shape-rendering:geometricPrecision; text-rendering:geometricPrecision; image-rendering:optimizeQuality; fill-rule:evenodd; clip-rule:evenodd"
viewBox="0 0 5712 1798"
 xmlns:xlink="http://www.w3.org/1999/xlink">
 <defs>
  <style type="text/css">
   <![CDATA[
    .fil0 {fill:#075F48}
   ]]>
  </style>
 </defs>
 <g id="Layer_x0020_1">
  <metadata id="CorelCorpID_0Corel-Layer"/>
  <g id="_366554296">
   <path class="fil0" d="M78 908c0,-32 0,-64 0,-96 0,-35 3,-59 3,-93 0,-105 -15,-183 39,-250 12,-16 37,-30 56,-41 21,-12 39,-23 60,-35l427 -247c98,-60 140,-86 253,-18 126,75 274,154 399,229 16,10 33,18 50,28 38,23 85,48 121,75 2,1 8,6 10,8 2,3 7,8 10,11 26,33 34,68 34,125l0 644c0,11 -20,50 -26,59 -25,38 -110,81 -150,105l-429 251c-36,21 -68,45 -124,46 -52,1 -86,-27 -122,-46 -18,-10 -35,-21 -54,-31l-271 -156c-75,-46 -137,-76 -213,-126l-27 -21c-1,-1 -1,-1 -2,-2 -55,-60 -41,-159 -41,-251 0,-30 -3,-49 -3,-81 0,-29 0,-58 0,-87zm-78 266l0 -612c0,-46 21,-103 41,-130 14,-19 22,-28 41,-43 27,-20 228,-133 267,-157l271 -156c18,-11 36,-22 54,-31 38,-20 63,-45 123,-45 72,0 134,40 190,74 10,6 17,10 27,16 9,5 17,10 26,15 10,5 17,10 27,16 90,54 199,111 295,168 18,11 34,20 53,31l107 62c35,21 62,51 79,89 5,13 20,50 20,64l0 725c0,28 -31,92 -52,116 -34,40 -256,161 -310,193l-320 185c-51,26 -70,44 -136,44 -53,0 -194,-88 -250,-120 -39,-23 -78,-44 -117,-66 -19,-12 -38,-23 -59,-34 -21,-12 -37,-22 -57,-33 -36,-20 -208,-119 -233,-137 -37,-28 -65,-60 -77,-107l-10 -127z"/>
   <path class="fil0" d="M2869 1164c-35,0 -63,-5 -92,-17 -10,-4 -16,-8 -26,-10l0 -301 94 -9c27,0 66,7 85,17 44,23 65,73 65,139 0,97 -31,181 -126,181zm-268 -433l0 766 141 0c15,0 9,-24 9,-51l0 -183c62,14 35,24 136,24 174,0 255,-128 255,-301 0,-44 -6,-90 -18,-123 -18,-49 -54,-94 -99,-117 -17,-9 -30,-15 -51,-22 -94,-29 -217,-17 -314,-3 -20,3 -42,9 -59,10z"/>
   <path class="fil0" d="M4613 983c0,-57 14,-112 62,-136 33,-17 54,-14 91,-14 41,0 67,13 93,27l0 286c-75,17 -166,36 -218,-38 -19,-29 -28,-77 -28,-125zm246 -249c-26,-13 -79,-27 -117,-27 -185,0 -277,96 -277,279 0,130 36,226 143,276 92,43 248,23 344,4 16,-3 40,-11 55,-12l0 -755 -148 0 0 235z"/>
   <path class="fil0" d="M5286 1010l0 -30c0,-88 41,-159 130,-159 74,0 120,25 138,96 9,34 9,52 9,87 0,102 -39,167 -136,172 -41,2 -81,-16 -107,-46 -20,-24 -34,-76 -34,-120zm-150 -15c0,123 42,234 161,275 74,26 177,25 251,2 48,-16 93,-49 120,-91 8,-13 18,-32 23,-48 34,-101 32,-257 -39,-341 -46,-55 -126,-85 -200,-85 -63,0 -108,-2 -168,22 -110,44 -148,155 -148,266z"/>
   <path class="fil0" d="M3939 1022c0,-67 -2,-152 70,-188 27,-13 49,-13 77,-13 47,0 81,22 100,51 41,59 48,235 -35,285 -33,19 -87,23 -125,10 -16,-5 -39,-18 -48,-30 -21,-25 -39,-70 -39,-115zm-150 -36c0,79 16,179 74,233 110,100 337,88 423,3 71,-72 77,-149 77,-248 0,-162 -104,-267 -259,-267 -79,0 -141,-1 -210,45 -75,49 -105,144 -105,234z"/>
   <path class="fil0" d="M1921 1089c0,64 17,118 53,154 63,63 176,49 249,21 45,-18 52,-26 86,-49l18 72 118 0 0 -580 -151 0 0 400c0,9 -17,18 -25,22 -45,28 -149,68 -185,5 -13,-22 -15,-51 -15,-85l0 -342 -148 0 0 382z"/>
   <path class="fil0" d="M3242 974c0,58 2,98 21,150 42,113 148,163 264,163 20,0 175,0 175,-24 0,-128 7,-113 -25,-106 -68,16 -151,22 -214,-10 -51,-26 -68,-84 -71,-140 -3,-48 0,-91 31,-131 50,-64 176,-53 251,-39 8,1 16,5 28,5l0 -117c-215,-50 -460,-9 -460,249z"/>
   <path class="fil0" d="M746 1296l135 0c-5,20 -21,36 -45,36l-48 0c-23,0 -34,-21 -42,-36zm-27 -93c32,0 64,0 96,0 35,0 60,3 93,3 0,23 -3,24 -27,24l-156 0c-1,-6 -5,-24 -6,-27zm84 -508c25,0 54,6 74,13 25,8 60,36 75,54 38,50 43,109 19,167 -10,24 -23,31 -38,49 -17,20 -22,25 -29,55 -5,20 -15,53 -17,71l-150 0c-37,-158 -50,-106 -87,-172 -29,-49 -24,-132 30,-186 29,-27 81,-51 123,-51zm-229 144c0,69 8,117 61,171 37,37 19,6 35,61 6,21 20,56 22,78l-36 0 12 77c9,36 17,26 24,70 8,51 46,90 96,90 48,0 113,5 140,-58 8,-19 8,-45 16,-60 20,-39 35,-87 -15,-113l12 -43c4,-14 6,-28 10,-43 16,-62 14,-35 42,-70 25,-32 47,-68 50,-112 9,-118 -48,-193 -146,-235 -14,-6 -24,-11 -41,-13 -79,-12 -159,7 -209,56 -36,36 -73,87 -73,144z"/>
   <path class="fil0" d="M1164 725c0,52 -5,44 28,53 82,23 29,101 56,178 11,31 27,32 42,54 -49,33 -48,77 -48,136 0,18 -2,66 -12,78 -21,29 -58,31 -60,33 -9,19 -3,40 -3,60 33,3 70,-3 98,-22 29,-18 46,-43 49,-80 3,-39 3,-82 6,-120 4,-56 63,-47 63,-67 0,-48 4,-45 -15,-51 -20,-6 -42,-20 -47,-43 -5,-25 -6,-81 -7,-110 -2,-78 -61,-111 -138,-111 -7,0 -12,5 -12,12z"/>
   <path class="fil0" d="M238 986l0 57c93,22 57,68 72,180 5,34 26,62 51,76 37,21 99,26 99,12 0,-67 -8,-53 -23,-55 -99,-20 -32,-155 -76,-216 -8,-10 -21,-16 -24,-30 33,-50 42,-22 42,-135 0,-72 8,-86 78,-102 0,-64 7,-57 -27,-57 -39,0 -63,11 -86,28 -54,40 -30,141 -42,190 -6,28 -38,46 -64,52z"/>
   <path class="fil0" d="M1016 622c0,34 46,55 72,27l109 -131c33,-40 6,-73 -27,-73 -25,0 -68,60 -84,81 -19,25 -70,75 -70,96z"/>
   <path class="fil0" d="M400 484c0,27 10,31 31,56l74 88c15,20 25,37 48,37 31,0 48,-28 37,-55 -5,-15 -99,-120 -115,-141 -32,-43 -75,-13 -75,15z"/>
   <path class="fil0" d="M773 331l0 189c0,45 78,50 78,-6l0 -180c0,-47 -78,-50 -78,-3z"/>
  </g>
 </g>
</svg>
